<svg xmlns="http://www.w3.org/2000/svg" width="96" height="96" viewBox="0 0 96 96">
  <defs>
    <linearGradient id="contactGrad" x1="0%" y1="0%" x2="100%" y2="100%">
      <stop offset="0%" style="stop-color:#10b981;stop-opacity:1" />
      <stop offset="100%" style="stop-color:#059669;stop-opacity:1" />
    </linearGradient>
  </defs>
  
  <circle cx="48" cy="48" r="44" fill="url(#contactGrad)" stroke="white" stroke-width="4"/>
  
  <!-- Phone icon -->
  <path d="M32 20c-2.2 0-4 1.8-4 4v48c0 2.2 1.8 4 4 4h32c2.2 0 4-1.8 4-4V24c0-2.2-1.8-4-4-4H32zm0 4h32v48H32V24zm16 40c2.2 0 4-1.8 4-4s-1.8-4-4-4-4 1.8-4 4 1.8 4 4 4z" fill="white"/>
</svg>